<svg width="29" height="30" viewBox="0 0 29 30" fill="#CCCCCC" xmlns="http://www.w3.org/2000/svg">
<path d="M25.3001 0.599976H3.7001C2.74532 0.599976 1.82964 0.97926 1.15451 1.65439C0.479382 2.32952 0.100098 3.2452 0.100098 4.19998L0.100098 25.8C0.100098 26.7548 0.479382 27.6704 1.15451 28.3456C1.82964 29.0207 2.74532 29.4 3.7001 29.4H25.3001C26.2549 29.4 27.1705 29.0207 27.8457 28.3456C28.5208 27.6704 28.9001 26.7548 28.9001 25.8V4.19998C28.9001 3.2452 28.5208 2.32952 27.8457 1.65439C27.1705 0.97926 26.2549 0.599976 25.3001 0.599976ZM1.9001 7.54258C1.9001 6.69118 2.7065 5.99998 3.7001 5.99998H25.3001C26.2937 5.99998 27.1001 6.69118 27.1001 7.54258V26.0574C27.1001 26.9088 26.2937 27.6 25.3001 27.6H3.7001C2.7065 27.6 1.9001 26.9088 1.9001 26.0574V7.54258Z" />
<path d="M11.8001 13.2C12.2775 13.2 12.7353 13.0103 13.0729 12.6728C13.4105 12.3352 13.6001 11.8774 13.6001 11.4C13.6001 10.9226 13.4105 10.4647 13.0729 10.1272C12.7353 9.78962 12.2775 9.59998 11.8001 9.59998C11.3227 9.59998 10.8649 9.78962 10.5273 10.1272C10.1897 10.4647 10.0001 10.9226 10.0001 11.4C10.0001 11.8774 10.1897 12.3352 10.5273 12.6728C10.8649 13.0103 11.3227 13.2 11.8001 13.2ZM17.2001 13.2C17.6775 13.2 18.1353 13.0103 18.4729 12.6728C18.8105 12.3352 19.0001 11.8774 19.0001 11.4C19.0001 10.9226 18.8105 10.4647 18.4729 10.1272C18.1353 9.78962 17.6775 9.59998 17.2001 9.59998C16.7227 9.59998 16.2649 9.78962 15.9273 10.1272C15.5897 10.4647 15.4001 10.9226 15.4001 11.4C15.4001 11.8774 15.5897 12.3352 15.9273 12.6728C16.2649 13.0103 16.7227 13.2 17.2001 13.2ZM22.6001 13.2C23.0775 13.2 23.5353 13.0103 23.8729 12.6728C24.2105 12.3352 24.4001 11.8774 24.4001 11.4C24.4001 10.9226 24.2105 10.4647 23.8729 10.1272C23.5353 9.78962 23.0775 9.59998 22.6001 9.59998C22.1227 9.59998 21.6649 9.78962 21.3273 10.1272C20.9897 10.4647 20.8001 10.9226 20.8001 11.4C20.8001 11.8774 20.9897 12.3352 21.3273 12.6728C21.6649 13.0103 22.1227 13.2 22.6001 13.2ZM6.4001 18.6C6.87749 18.6 7.33532 18.4103 7.67289 18.0728C8.01045 17.7352 8.2001 17.2774 8.2001 16.8C8.2001 16.3226 8.01045 15.8647 7.67289 15.5272C7.33532 15.1896 6.87749 15 6.4001 15C5.92271 15 5.46487 15.1896 5.12731 15.5272C4.78974 15.8647 4.6001 16.3226 4.6001 16.8C4.6001 17.2774 4.78974 17.7352 5.12731 18.0728C5.46487 18.4103 5.92271 18.6 6.4001 18.6ZM11.8001 18.6C12.2775 18.6 12.7353 18.4103 13.0729 18.0728C13.4105 17.7352 13.6001 17.2774 13.6001 16.8C13.6001 16.3226 13.4105 15.8647 13.0729 15.5272C12.7353 15.1896 12.2775 15 11.8001 15C11.3227 15 10.8649 15.1896 10.5273 15.5272C10.1897 15.8647 10.0001 16.3226 10.0001 16.8C10.0001 17.2774 10.1897 17.7352 10.5273 18.0728C10.8649 18.4103 11.3227 18.6 11.8001 18.6ZM17.2001 18.6C17.6775 18.6 18.1353 18.4103 18.4729 18.0728C18.8105 17.7352 19.0001 17.2774 19.0001 16.8C19.0001 16.3226 18.8105 15.8647 18.4729 15.5272C18.1353 15.1896 17.6775 15 17.2001 15C16.7227 15 16.2649 15.1896 15.9273 15.5272C15.5897 15.8647 15.4001 16.3226 15.4001 16.8C15.4001 17.2774 15.5897 17.7352 15.9273 18.0728C16.2649 18.4103 16.7227 18.6 17.2001 18.6ZM22.6001 18.6C23.0775 18.6 23.5353 18.4103 23.8729 18.0728C24.2105 17.7352 24.4001 17.2774 24.4001 16.8C24.4001 16.3226 24.2105 15.8647 23.8729 15.5272C23.5353 15.1896 23.0775 15 22.6001 15C22.1227 15 21.6649 15.1896 21.3273 15.5272C20.9897 15.8647 20.8001 16.3226 20.8001 16.8C20.8001 17.2774 20.9897 17.7352 21.3273 18.0728C21.6649 18.4103 22.1227 18.6 22.6001 18.6ZM6.4001 24C6.87749 24 7.33532 23.8103 7.67289 23.4728C8.01045 23.1352 8.2001 22.6774 8.2001 22.2C8.2001 21.7226 8.01045 21.2647 7.67289 20.9272C7.33532 20.5896 6.87749 20.4 6.4001 20.4C5.92271 20.4 5.46487 20.5896 5.12731 20.9272C4.78974 21.2647 4.6001 21.7226 4.6001 22.2C4.6001 22.6774 4.78974 23.1352 5.12731 23.4728C5.46487 23.8103 5.92271 24 6.4001 24ZM11.8001 24C12.2775 24 12.7353 23.8103 13.0729 23.4728C13.4105 23.1352 13.6001 22.6774 13.6001 22.2C13.6001 21.7226 13.4105 21.2647 13.0729 20.9272C12.7353 20.5896 12.2775 20.4 11.8001 20.4C11.3227 20.4 10.8649 20.5896 10.5273 20.9272C10.1897 21.2647 10.0001 21.7226 10.0001 22.2C10.0001 22.6774 10.1897 23.1352 10.5273 23.4728C10.8649 23.8103 11.3227 24 11.8001 24ZM17.2001 24C17.6775 24 18.1353 23.8103 18.4729 23.4728C18.8105 23.1352 19.0001 22.6774 19.0001 22.2C19.0001 21.7226 18.8105 21.2647 18.4729 20.9272C18.1353 20.5896 17.6775 20.4 17.2001 20.4C16.7227 20.4 16.2649 20.5896 15.9273 20.9272C15.5897 21.2647 15.4001 21.7226 15.4001 22.2C15.4001 22.6774 15.5897 23.1352 15.9273 23.4728C16.2649 23.8103 16.7227 24 17.2001 24Z" />
</svg>