<svg width="16" height="17" viewBox="0 0 16 17" fill="none" xmlns="http://www.w3.org/2000/svg">
<g id="bi:clock-history" clip-path="url(#clip0_959_11342)">
<g id="Group">
<path id="Vector" d="M8.515 1.519C8.34363 1.50635 8.17184 1.50001 8 1.5V0.5C8.19654 0.500096 8.393 0.507434 8.589 0.522L8.515 1.519ZM10.519 1.969C10.1984 1.84529 9.86923 1.74536 9.534 1.67L9.753 0.694C10.137 0.78 10.5123 0.894 10.879 1.036L10.519 1.969ZM11.889 2.679C11.746 2.58364 11.5996 2.49358 11.45 2.409L11.943 1.539C12.285 1.73266 12.6122 1.95125 12.922 2.193L12.307 2.982C12.1714 2.87623 12.032 2.7755 11.889 2.68V2.679ZM13.723 4.469C13.5252 4.188 13.3069 3.92194 13.07 3.673L13.794 2.983C14.0647 3.269 14.3137 3.57233 14.541 3.893L13.723 4.469ZM14.467 5.821C14.4014 5.66243 14.33 5.50633 14.253 5.353L15.146 4.903C15.3225 5.25412 15.4729 5.61777 15.596 5.991L14.646 6.304C14.5923 6.14086 14.5326 5.97975 14.467 5.821ZM14.997 8.328C14.9889 7.98434 14.9555 7.64175 14.897 7.303L15.882 7.133C15.9487 7.51967 15.9873 7.90967 15.998 8.303L14.997 8.328ZM14.866 9.866C14.8993 9.69667 14.9263 9.52667 14.947 9.356L15.94 9.479C15.8918 9.86913 15.8149 10.2552 15.71 10.634L14.746 10.367C14.792 10.2023 14.832 10.0353 14.866 9.866ZM13.914 12.245C14.098 11.9543 14.26 11.6517 14.4 11.337L15.314 11.742C15.154 12.102 14.969 12.448 14.759 12.78L13.914 12.245ZM12.95 13.45C13.072 13.328 13.1887 13.202 13.3 13.072L14.058 13.725C13.9297 13.8739 13.7959 14.018 13.657 14.157L12.95 13.45Z" fill="white"/>
<path id="Vector_2" d="M8.00019 1.5C6.84907 1.50008 5.71574 1.78405 4.70057 2.32674C3.68541 2.86943 2.81974 3.6541 2.18025 4.61125C1.54076 5.5684 1.14719 6.66848 1.03439 7.81406C0.921589 8.95964 1.09304 10.1154 1.53357 11.1789C1.9741 12.2423 2.6701 13.1808 3.55992 13.9111C4.44974 14.6413 5.50593 15.1409 6.63493 15.3655C7.76393 15.5901 8.93089 15.5328 10.0325 15.1987C11.134 14.8645 12.1362 14.2639 12.9502 13.45L13.6572 14.157C12.7269 15.0878 11.5814 15.7747 10.3222 16.157C9.06302 16.5393 7.72896 16.605 6.43826 16.3485C5.14755 16.0919 3.94005 15.521 2.92274 14.6862C1.90543 13.8515 1.10973 12.7787 0.606128 11.5629C0.102528 10.3471 -0.0934196 9.02588 0.0356482 7.71627C0.164716 6.40666 0.614814 5.1491 1.34606 4.05502C2.07731 2.96094 3.06713 2.06411 4.22782 1.444C5.38851 0.823895 6.68424 0.499651 8.00019 0.5V1.5Z" fill="white"/>
<path id="Vector_3" d="M7.5 3.5C7.63261 3.5 7.75979 3.55268 7.85355 3.64645C7.94732 3.74021 8 3.86739 8 4V9.21L11.248 11.066C11.3598 11.1334 11.4408 11.2419 11.4736 11.3683C11.5065 11.4946 11.4886 11.6288 11.4238 11.7422C11.3591 11.8556 11.2525 11.9391 11.127 11.9749C11.0014 12.0108 10.8669 11.9961 10.752 11.934L7.252 9.934C7.17547 9.89029 7.11186 9.82712 7.06761 9.75091C7.02335 9.67469 7.00003 9.58813 7 9.5V4C7 3.86739 7.05268 3.74021 7.14645 3.64645C7.24021 3.55268 7.36739 3.5 7.5 3.5Z" fill="white"/>
</g>
</g>
<defs>
<clipPath id="clip0_959_11342">
<rect width="16" height="16" fill="white" transform="translate(0 0.5)"/>
</clipPath>
</defs>
</svg>
