<svg width="15" height="15" viewBox="0 0 15 15" fill="#888888" xmlns="http://www.w3.org/2000/svg">
<path fill-rule="evenodd" clip-rule="evenodd" d="M7.16802 13.4569C7.12437 13.4133 7.08973 13.3616 7.0661 13.3046C7.04247 13.2477 7.03031 13.1866 7.03031 13.125C7.03031 13.0633 7.04247 13.0023 7.0661 12.9453C7.08973 12.8884 7.12437 12.8367 7.16802 12.7931L12.4621 7.49999L7.16802 2.20686C7.08 2.11884 7.03055 1.99946 7.03055 1.87499C7.03055 1.75051 7.08 1.63113 7.16802 1.54311C7.25604 1.45509 7.37542 1.40565 7.49989 1.40565C7.62437 1.40565 7.74375 1.45509 7.83177 1.54311L13.4568 7.16811C13.5004 7.21165 13.5351 7.26338 13.5587 7.32033C13.5823 7.37728 13.5945 7.43833 13.5945 7.49999C13.5945 7.56164 13.5823 7.62269 13.5587 7.67964C13.5351 7.73659 13.5004 7.78832 13.4568 7.83186L7.83177 13.4569C7.78823 13.5005 7.7365 13.5351 7.67955 13.5588C7.6226 13.5824 7.56155 13.5946 7.4999 13.5946C7.43824 13.5946 7.37719 13.5824 7.32024 13.5588C7.26329 13.5351 7.21156 13.5005 7.16802 13.4569Z"  />
<path fill-rule="evenodd" clip-rule="evenodd" d="M3.41802 13.4569C3.37437 13.4133 3.33973 13.3616 3.3161 13.3046C3.29247 13.2477 3.28031 13.1866 3.28031 13.125C3.28031 13.0633 3.29247 13.0023 3.3161 12.9453C3.33973 12.8884 3.37437 12.8367 3.41802 12.7931L8.71208 7.49999L3.41802 2.20686C3.37444 2.16328 3.33987 2.11154 3.31628 2.0546C3.29269 1.99765 3.28055 1.93662 3.28055 1.87499C3.28055 1.81335 3.29269 1.75232 3.31628 1.69538C3.33987 1.63843 3.37444 1.58669 3.41802 1.54311C3.4616 1.49953 3.51334 1.46496 3.57028 1.44137C3.62723 1.41778 3.68826 1.40565 3.74989 1.40565C3.81153 1.40565 3.87256 1.41778 3.9295 1.44137C3.98645 1.46496 4.03819 1.49953 4.08177 1.54311L9.70677 7.16811C9.75042 7.21165 9.78506 7.26338 9.80869 7.32033C9.83232 7.37728 9.84448 7.43833 9.84448 7.49999C9.84448 7.56164 9.83232 7.62269 9.80869 7.67964C9.78506 7.73659 9.75042 7.78832 9.70677 7.83186L4.08177 13.4569C4.03823 13.5005 3.9865 13.5351 3.92955 13.5588C3.8726 13.5824 3.81155 13.5946 3.7499 13.5946C3.68824 13.5946 3.62719 13.5824 3.57024 13.5588C3.51329 13.5351 3.46156 13.5005 3.41802 13.4569Z" />
</svg>
