<svg width="13" height="14" viewBox="0 0 13 14" fill="none" xmlns="http://www.w3.org/2000/svg">
<path d="M0.125 10.8675V13.0209C0.125 13.2192 0.280833 13.375 0.479167 13.375H2.6325C2.72458 13.375 2.81667 13.3396 2.88042 13.2688L10.6154 5.54086L7.95917 2.88461L0.23125 10.6125C0.160417 10.6834 0.125 10.7684 0.125 10.8675ZM12.6696 3.48669C12.7352 3.42116 12.7873 3.34332 12.8229 3.25763C12.8584 3.17194 12.8767 3.08008 12.8767 2.98731C12.8767 2.89454 12.8584 2.80269 12.8229 2.717C12.7873 2.63131 12.7352 2.55347 12.6696 2.48794L11.0121 0.830439C10.9466 0.764774 10.8687 0.712678 10.783 0.677132C10.6973 0.641587 10.6055 0.623291 10.5127 0.623291C10.4199 0.623291 10.3281 0.641587 10.2424 0.677132C10.1567 0.712678 10.0789 0.764774 10.0133 0.830439L8.71708 2.12669L11.3733 4.78294L12.6696 3.48669Z" fill="#CCCCCC"/>
</svg>
