<svg width="12" height="13" viewBox="0 0 12 13" fill="none" xmlns="http://www.w3.org/2000/svg">
<path fill-rule="evenodd" clip-rule="evenodd" d="M11.2125 3.263L6.47775 7.184C6.34321 7.29547 6.17397 7.35647 5.99925 7.35647C5.82453 7.35647 5.65529 7.29547 5.52075 7.184L0.78825 3.263C0.762857 3.33943 0.749942 3.41946 0.75 3.5V9.5C0.75 9.69891 0.829018 9.88968 0.96967 10.0303C1.11032 10.171 1.30109 10.25 1.5 10.25H10.5C10.6989 10.25 10.8897 10.171 11.0303 10.0303C11.171 9.88968 11.25 9.69891 11.25 9.5V3.5C11.2503 3.4195 11.2376 3.33948 11.2125 3.263ZM1.5 2H10.5C10.8978 2 11.2794 2.15804 11.5607 2.43934C11.842 2.72064 12 3.10218 12 3.5V9.5C12 9.89782 11.842 10.2794 11.5607 10.5607C11.2794 10.842 10.8978 11 10.5 11H1.5C1.10218 11 0.720644 10.842 0.43934 10.5607C0.158035 10.2794 0 9.89782 0 9.5V3.5C0 3.10218 0.158035 2.72064 0.43934 2.43934C0.720644 2.15804 1.10218 2 1.5 2ZM1.3425 2.75L5.5245 6.20225C5.65844 6.31288 5.82663 6.37358 6.00035 6.37399C6.17407 6.3744 6.34254 6.31449 6.477 6.2045L10.701 2.75H1.3425Z" fill="#CCCCCC"/>
</svg>
