<svg width="27" height="16" viewBox="0 0 27 16" fill="none" xmlns="http://www.w3.org/2000/svg">
<path fill-rule="evenodd" clip-rule="evenodd" d="M3.74434 14.991C3.39051 15.3448 2.9106 15.5436 2.4102 15.5436C1.9098 15.5436 1.42989 15.3448 1.07606 14.991C0.722221 14.6371 0.523438 14.1572 0.523438 13.6568C0.523438 13.1564 0.722221 12.6765 1.07606 12.3227L7.36114 6.03949L7.37434 6.02629C7.88786 5.52333 8.57803 5.24165 9.29683 5.24165C10.0156 5.24165 10.7058 5.52333 11.2193 6.02629L11.2325 6.03949L14.4401 9.24709L18.8659 4.56675L16.9047 2.60561C16.7072 2.40782 16.5727 2.15593 16.5182 1.88175C16.4638 1.60757 16.4918 1.3234 16.5987 1.06512C16.7057 0.806851 16.8867 0.586061 17.1191 0.43064C17.3514 0.27522 17.6246 0.19214 17.9042 0.191895H24.7908C25.1659 0.191895 25.5256 0.340899 25.7909 0.606129C26.0561 0.871359 26.2051 1.23109 26.2051 1.60618V8.49281C26.2048 8.77235 26.1218 9.04554 25.9663 9.27789C25.8109 9.51024 25.5901 9.69132 25.3319 9.79826C25.0736 9.90521 24.7894 9.93321 24.5152 9.87874C24.241 9.82427 23.9892 9.68978 23.7914 9.49224L21.5342 7.23315L16.4352 12.6282C16.1833 12.8882 15.8824 13.0959 15.5499 13.2393C15.2174 13.3827 14.8599 13.4589 14.4978 13.4636C14.1358 13.4684 13.7764 13.4015 13.4403 13.2669C13.1042 13.1322 12.798 12.9325 12.5393 12.6791L12.5261 12.6659L9.29589 9.43755L3.74434 14.991Z"/>
</svg>
