<svg width="22" height="22" viewBox="0 0 22 22" fill="none" xmlns="http://www.w3.org/2000/svg">
<path d="M21.58 4.54648L17.6667 0.613151C17.4081 0.355861 17.0582 0.211426 16.6934 0.211426C16.3286 0.211426 15.9786 0.355861 15.72 0.613151L1.8467 14.4665L0.580038 19.9332C0.536342 20.133 0.53784 20.3401 0.584422 20.5392C0.631004 20.7384 0.721494 20.9247 0.84928 21.0844C0.977067 21.2442 1.13892 21.3733 1.32302 21.4625C1.50712 21.5517 1.70882 21.5986 1.91337 21.5998C2.00865 21.6101 2.10476 21.6101 2.20004 21.5998L7.72671 20.3331L21.58 6.49315C21.8373 6.23455 21.9818 5.88461 21.9818 5.51982C21.9818 5.15503 21.8373 4.80508 21.58 4.54648ZM7.06004 19.1332L1.88004 20.2198L3.06004 15.1398L13.44 4.79982L17.44 8.79982L7.06004 19.1332ZM18.3334 7.83315L14.3334 3.83315L16.6534 1.52648L20.5867 5.52648L18.3334 7.83315Z" fill="#EDA74C"/>
</svg>
