<svg width="20" height="15" viewBox="0 0 20 15" fill="#CCCCCC" stroke="#CCCCCC" xmlns="http://www.w3.org/2000/svg">
<path d="M0.826177 12.2807L1.17973 12.6343L0.826175 12.2807C0.617329 12.4896 0.5 12.7728 0.5 13.0682C0.5 13.3635 0.617329 13.6468 0.826177 13.8556C1.03502 14.0645 1.31828 14.1818 1.61364 14.1818H15.1136C15.409 14.1818 15.6922 14.0645 15.9011 13.8556C16.1099 13.6468 16.2273 13.3635 16.2273 13.0682C16.2273 12.7728 16.1099 12.4896 15.9011 12.2807L15.5475 12.6343L15.9011 12.2807C15.6922 12.0719 15.409 11.9545 15.1136 11.9545H1.61364C1.31828 11.9545 1.03502 12.0719 0.826177 12.2807ZM0.826176 0.826176C0.617329 1.03502 0.5 1.31828 0.5 1.61364C0.5 1.90899 0.617329 2.19225 0.826176 2.4011C1.03502 2.60994 1.31828 2.72727 1.61364 2.72727H16.75C17.0454 2.72727 17.3286 2.60994 17.5375 2.4011C17.7463 2.19225 17.8636 1.90899 17.8636 1.61364C17.8636 1.31828 17.7463 1.03502 17.5375 0.826178C17.3286 0.617328 17.0454 0.5 16.75 0.5H1.61364C1.31828 0.5 1.03502 0.617329 0.826176 0.826176ZM1.61364 6.22727C1.31828 6.22727 1.03502 6.3446 0.826177 6.55345C0.617329 6.7623 0.5 7.04555 0.5 7.34091C0.5 7.63626 0.617329 7.91952 0.826177 8.12837C1.03502 8.33722 1.31828 8.45455 1.61364 8.45455H18.3864C18.6817 8.45455 18.965 8.33721 19.1738 8.12837C19.3827 7.91952 19.5 7.63626 19.5 7.34091C19.5 7.04556 19.3827 6.7623 19.1738 6.55345C18.965 6.3446 18.6817 6.22727 18.3864 6.22727H1.61364Z"  />
</svg>
