<svg width="24" height="24" viewBox="0 0 24 24" fill="none" xmlns="http://www.w3.org/2000/svg">
<g clip-path="url(#clip0_1109_6299)">
<path d="M22.5795 5.54667L18.6662 1.61333C18.4076 1.35604 18.0577 1.21161 17.6929 1.21161C17.3281 1.21161 16.9781 1.35604 16.7196 1.61333L2.84622 15.4667L1.57955 20.9333C1.53585 21.1332 1.53735 21.3402 1.58393 21.5394C1.63052 21.7386 1.72101 21.9249 1.84879 22.0846C1.97658 22.2443 2.13843 22.3735 2.32253 22.4627C2.50663 22.5518 2.70833 22.5988 2.91288 22.6C3.00816 22.6103 3.10427 22.6103 3.19955 22.6L8.72622 21.3333L22.5795 7.49333C22.8368 7.23474 22.9813 6.88479 22.9813 6.52C22.9813 6.15521 22.8368 5.80526 22.5795 5.54667ZM8.05955 20.1333L2.87955 21.22L4.05955 16.14L14.4396 5.8L18.4396 9.8L8.05955 20.1333ZM19.3329 8.83333L15.3329 4.83333L17.6529 2.52667L21.5862 6.52667L19.3329 8.83333Z" />
</g>
<defs>
<clipPath id="clip0_1109_6299">
<rect width="24" height="24" fill="white"/>
</clipPath>
</defs>
</svg>
