<svg width="29" height="30" viewBox="0 0 29 30" fill="#CCCCCC" xmlns="http://www.w3.org/2000/svg">
<g clip-path="url(#clip0_1040_11049)">
<path d="M0.100098 3.68569C0.100098 2.86731 0.425199 2.08244 1.00388 1.50376C1.58257 0.925077 2.36743 0.599976 3.18581 0.599976H9.35724C10.1756 0.599976 10.9605 0.925077 11.5392 1.50376C12.1179 2.08244 12.443 2.86731 12.443 3.68569V9.85712C12.443 10.6755 12.1179 11.4604 11.5392 12.039C10.9605 12.6177 10.1756 12.9428 9.35724 12.9428H3.18581C2.36743 12.9428 1.58257 12.6177 1.00388 12.039C0.425199 11.4604 0.100098 10.6755 0.100098 9.85712V3.68569ZM16.5572 3.68569C16.5572 2.86731 16.8823 2.08244 17.461 1.50376C18.0397 0.925077 18.8246 0.599976 19.643 0.599976H25.8144C26.6328 0.599976 27.4176 0.925077 27.9963 1.50376C28.575 2.08244 28.9001 2.86731 28.9001 3.68569V9.85712C28.9001 10.6755 28.575 11.4604 27.9963 12.039C27.4176 12.6177 26.6328 12.9428 25.8144 12.9428H19.643C18.8246 12.9428 18.0397 12.6177 17.461 12.039C16.8823 11.4604 16.5572 10.6755 16.5572 9.85712V3.68569ZM0.100098 20.1428C0.100098 19.3244 0.425199 18.5396 1.00388 17.9609C1.58257 17.3822 2.36743 17.0571 3.18581 17.0571H9.35724C10.1756 17.0571 10.9605 17.3822 11.5392 17.9609C12.1179 18.5396 12.443 19.3244 12.443 20.1428V26.3143C12.443 27.1326 12.1179 27.9175 11.5392 28.4962C10.9605 29.0749 10.1756 29.4 9.35724 29.4H3.18581C2.36743 29.4 1.58257 29.0749 1.00388 28.4962C0.425199 27.9175 0.100098 27.1326 0.100098 26.3143V20.1428ZM16.5572 20.1428C16.5572 19.3244 16.8823 18.5396 17.461 17.9609C18.0397 17.3822 18.8246 17.0571 19.643 17.0571H25.8144C26.6328 17.0571 27.4176 17.3822 27.9963 17.9609C28.575 18.5396 28.9001 19.3244 28.9001 20.1428V26.3143C28.9001 27.1326 28.575 27.9175 27.9963 28.4962C27.4176 29.0749 26.6328 29.4 25.8144 29.4H19.643C18.8246 29.4 18.0397 29.0749 17.461 28.4962C16.8823 27.9175 16.5572 27.1326 16.5572 26.3143V20.1428Z" />
</g>
<defs>
<clipPath id="clip0_1040_11049">
<rect width="28.8" height="28.8"  transform="translate(0.100098 0.599976)"/>
</clipPath>
</defs>
</svg>
