<svg width="24" height="24" viewBox="0 0 24 24" fill="none" xmlns="http://www.w3.org/2000/svg">
<g clip-path="url(#clip0_1109_14207)">
<path d="M12 24C12.7956 24 13.5587 23.6839 14.1213 23.1213C14.6839 22.5587 15 21.7956 15 21H9C9 21.7956 9.31607 22.5587 9.87868 23.1213C10.4413 23.6839 11.2044 24 12 24ZM12 2.877L10.8045 3.1185C9.44818 3.39428 8.22891 4.13049 7.3533 5.20238C6.47769 6.27427 5.99958 7.61593 6 9C6 9.942 5.799 12.2955 5.3115 14.613C5.0715 15.7635 4.7475 16.962 4.317 18H19.683C19.2525 16.962 18.93 15.765 18.6885 14.613C18.201 12.2955 18 9.942 18 9C18.0001 7.61619 17.5218 6.27489 16.6462 5.2033C15.7706 4.13171 14.5516 3.39573 13.1955 3.12L12 2.877ZM21.33 18C21.6645 18.6705 22.0515 19.2015 22.5 19.5H1.5C1.9485 19.2015 2.3355 18.6705 2.67 18C4.02 15.3 4.5 10.32 4.5 9C4.5 5.37 7.08 2.34 10.5075 1.6485C10.4866 1.43993 10.5096 1.22929 10.5751 1.03016C10.6405 0.831031 10.747 0.647835 10.8876 0.492387C11.0283 0.33694 11.1999 0.212692 11.3915 0.127657C11.5831 0.042622 11.7904 -0.00131226 12 -0.00131226C12.2096 -0.00131226 12.4169 0.042622 12.6085 0.127657C12.8001 0.212692 12.9717 0.33694 13.1124 0.492387C13.253 0.647835 13.3595 0.831031 13.4249 1.03016C13.4904 1.22929 13.5134 1.43993 13.4925 1.6485C15.1882 1.99283 16.7127 2.91287 17.8075 4.2527C18.9024 5.59253 19.5003 7.26971 19.5 9C19.5 10.32 19.98 15.3 21.33 18Z" />
</g>
<defs>
<clipPath id="clip0_1109_14207">
<rect width="24" height="24" />
</clipPath>
</defs>
</svg>
