<svg width="24" height="24" viewBox="0 0 24 24" fill="none" xmlns="http://www.w3.org/2000/svg">
<path d="M20.3034 3.69655C19.1121 2.50359 17.5536 1.74681 15.8794 1.54832C14.2052 1.34984 12.513 1.72123 11.0758 2.60256C9.63854 3.4839 8.54018 4.82377 7.95793 6.40597C7.37568 7.98816 7.34349 9.72039 7.86657 11.3231L2.6897 16.5C2.5498 16.6388 2.43889 16.804 2.36341 16.986C2.28792 17.168 2.24938 17.3632 2.25001 17.5603V20.25C2.25001 20.6478 2.40804 21.0293 2.68935 21.3107C2.97065 21.592 3.35218 21.75 3.75001 21.75H6.75001C6.94892 21.75 7.13969 21.671 7.28034 21.5303C7.42099 21.3897 7.50001 21.1989 7.50001 21V19.5H9.00001C9.19892 19.5 9.38969 19.421 9.53034 19.2803C9.67099 19.1397 9.75001 18.9489 9.75001 18.75V17.25H11.25C11.3485 17.2501 11.4461 17.2307 11.5371 17.1931C11.6282 17.1555 11.7109 17.1002 11.7806 17.0306L12.6769 16.1334C13.4271 16.3775 14.2111 16.5012 15 16.5H15.0094C16.492 16.4982 17.9408 16.057 19.1728 15.2322C20.4048 14.4074 21.3646 13.2359 21.9312 11.8658C22.4977 10.4957 22.6454 8.98846 22.3557 7.53444C22.066 6.08042 21.3518 4.74488 20.3034 3.69655ZM21 9.19687C20.8978 12.3928 18.2109 14.9962 15.0103 15H15C14.2408 15.0013 13.4883 14.8578 12.7828 14.5772C12.6448 14.5173 12.492 14.5003 12.3442 14.5284C12.1964 14.5565 12.0605 14.6283 11.9541 14.7347L10.9397 15.75H9.00001C8.8011 15.75 8.61033 15.829 8.46968 15.9697C8.32903 16.1103 8.25001 16.3011 8.25001 16.5V18H6.75001C6.5511 18 6.36033 18.079 6.21968 18.2197C6.07903 18.3603 6.00001 18.5511 6.00001 18.75V20.25H3.75001V17.5603L9.26532 12.0459C9.37166 11.9395 9.44355 11.8036 9.47163 11.6558C9.49972 11.508 9.48271 11.3552 9.42282 11.2172C9.14129 10.5094 8.99777 9.75423 9.00001 8.99249C9.00001 5.79187 11.6072 3.10499 14.8031 3.0028C15.6241 2.97541 16.4419 3.11686 17.2059 3.41841C17.97 3.71996 18.664 4.17518 19.2449 4.75586C19.8259 5.33655 20.2814 6.03033 20.5833 6.79424C20.8852 7.55815 21.027 8.37591 21 9.19687ZM18 7.12499C18 7.3475 17.934 7.565 17.8104 7.75001C17.6868 7.93501 17.5111 8.07921 17.3055 8.16436C17.1 8.24951 16.8738 8.27178 16.6555 8.22838C16.4373 8.18497 16.2368 8.07782 16.0795 7.92049C15.9222 7.76315 15.815 7.5627 15.7716 7.34447C15.7282 7.12624 15.7505 6.90004 15.8356 6.69447C15.9208 6.48891 16.065 6.31321 16.25 6.18959C16.435 6.06597 16.6525 5.99999 16.875 5.99999C17.1734 5.99999 17.4595 6.11852 17.6705 6.3295C17.8815 6.54048 18 6.82662 18 7.12499Z" />
</svg>
