<svg width="24" height="24" viewBox="0 0 24 24" xmlns="http://www.w3.org/2000/svg">
<path fill-rule="evenodd" clip-rule="evenodd" d="M5.25 9.303V8C5.25 6.20979 5.96116 4.4929 7.22703 3.22703C8.4929 1.96116 10.2098 1.25 12 1.25C13.7902 1.25 15.5071 1.96116 16.773 3.22703C18.0388 4.4929 18.75 6.20979 18.75 8V9.303C18.977 9.319 19.19 9.339 19.392 9.367C20.292 9.487 21.05 9.747 21.652 10.348C22.254 10.95 22.512 11.708 22.634 12.608C22.75 13.475 22.75 14.578 22.75 15.945V16.055C22.75 17.422 22.75 18.525 22.634 19.392C22.512 20.292 22.254 21.05 21.652 21.652C21.05 22.254 20.292 22.512 19.392 22.634C18.525 22.75 17.422 22.75 16.055 22.75H7.945C6.578 22.75 5.475 22.75 4.608 22.634C3.708 22.512 2.95 22.254 2.348 21.652C1.746 21.05 1.488 20.292 1.367 19.392C1.25 18.525 1.25 17.422 1.25 16.055V15.945C1.25 14.578 1.25 13.475 1.367 12.608C1.487 11.708 1.747 10.95 2.348 10.348C2.95 9.746 3.708 9.488 4.608 9.367C4.82122 9.33844 5.03534 9.3171 5.25 9.303ZM6.75 8C6.75 6.60761 7.30312 5.27225 8.28769 4.28769C9.27225 3.30312 10.6076 2.75 12 2.75C13.3924 2.75 14.7277 3.30312 15.7123 4.28769C16.6969 5.27225 17.25 6.60761 17.25 8V9.253C16.877 9.25 16.478 9.25 16.055 9.25H7.945C7.522 9.25 7.124 9.25 6.75 9.253V8ZM3.409 11.409C3.686 11.132 4.074 10.952 4.809 10.853C5.563 10.752 6.565 10.75 8 10.75H16C17.435 10.75 18.436 10.752 19.192 10.853C19.926 10.952 20.314 11.133 20.591 11.409C20.868 11.686 21.048 12.074 21.147 12.809C21.248 13.564 21.25 14.565 21.25 16C21.25 17.435 21.248 18.436 21.147 19.192C21.048 19.926 20.867 20.314 20.591 20.591C20.314 20.868 19.926 21.048 19.191 21.147C18.436 21.248 17.435 21.25 16 21.25H8C6.565 21.25 5.563 21.248 4.808 21.147C4.074 21.048 3.686 20.867 3.409 20.591C3.132 20.314 2.952 19.926 2.853 19.191C2.752 18.436 2.75 17.435 2.75 16C2.75 14.565 2.752 13.563 2.853 12.808C2.952 12.074 3.133 11.686 3.409 11.409Z" />
</svg>
