<svg width="26" height="29" viewBox="0 0 26 29" fill="none" xmlns="http://www.w3.org/2000/svg">
<path fill-rule="evenodd" clip-rule="evenodd" d="M13.4001 26.8794C13.4608 26.8675 13.5209 26.8525 13.5801 26.8344C13.7169 26.7936 13.8933 26.7228 14.1093 26.622C14.5413 26.4186 15.0939 26.1 15.7167 25.6626C17.2824 24.5365 18.67 23.1816 19.8333 21.6432C22.5819 18.0486 24.8859 12.5874 23.8887 5.1048C23.8661 4.94416 23.7987 4.79313 23.6943 4.66898C23.5899 4.54483 23.4526 4.45259 23.2983 4.4028C22.1265 4.0194 20.1483 3.3948 18.1917 2.8638C16.1937 2.322 14.3559 1.9206 13.4001 1.9206V26.8794ZM8.12966 1.008C10.0827 0.477 12.1581 0 13.4001 0C14.6421 0 16.7175 0.477 18.6705 1.008C20.6685 1.548 22.6827 2.187 23.8671 2.574C24.3623 2.73753 24.8013 3.03744 25.1337 3.43926C25.4661 3.84109 25.6784 4.32853 25.7463 4.8456C26.8191 12.9042 24.3297 18.8766 21.3093 22.8276C20.0279 24.5173 18.5008 26.0056 16.7787 27.243C16.1838 27.6722 15.5526 28.0486 14.8923 28.368C14.3883 28.6056 13.8465 28.8 13.4001 28.8C12.9537 28.8 12.4137 28.6056 11.9079 28.368C11.2475 28.0486 10.6163 27.6722 10.0215 27.243C8.29931 26.0056 6.77217 24.5173 5.49086 22.8276C2.47046 18.8766 -0.0189415 12.9042 1.05386 4.8456C1.1217 4.32853 1.33402 3.84109 1.66643 3.43926C1.99884 3.03744 2.43786 2.73753 2.93306 2.574C4.65252 2.01062 6.38521 1.48847 8.12966 1.008Z" />
</svg>
