<svg width="24" height="24" viewBox="0 0 24 24" fill="none" xmlns="http://www.w3.org/2000/svg">
<path d="M20.1725 6.75002H18.3115L13.7455 11.314C13.9027 11.7148 13.9172 12.1575 13.7864 12.5677C13.6557 12.9779 13.3876 13.3306 13.0274 13.5664C12.6672 13.8022 12.2368 13.9068 11.8085 13.8626C11.3803 13.8184 10.9803 13.6281 10.6758 13.3237C10.3714 13.0192 10.1811 12.6192 10.1369 12.191C10.0927 11.7627 10.1973 11.3323 10.4331 10.9721C10.6689 10.6119 11.0216 10.3438 11.4318 10.2131C11.842 10.0823 12.2847 10.0968 12.6855 10.254L17.2505 5.68902V3.82802C17.2506 3.579 17.3495 3.34019 17.5255 3.16402L19.2555 1.43402C19.2875 1.4018 19.3277 1.37891 19.3717 1.36781C19.4158 1.35671 19.462 1.35782 19.5055 1.37102C19.5945 1.39702 19.6605 1.47102 19.6785 1.56202L20.1385 3.86302L22.4385 4.32302C22.5285 4.34102 22.6025 4.40702 22.6285 4.49602C22.6416 4.53925 22.6428 4.58524 22.6319 4.62908C22.6209 4.67293 22.5983 4.71299 22.5665 4.74502L20.8355 6.47502C20.6595 6.65078 20.4211 6.74966 20.1725 6.75002Z" />
<path d="M2.625 12C2.625 14.4864 3.61272 16.871 5.37087 18.6291C7.12903 20.3873 9.5136 21.375 12 21.375C13.2311 21.375 14.4502 21.1325 15.5877 20.6614C16.7251 20.1902 17.7586 19.4997 18.6291 18.6291C19.4997 17.7586 20.1902 16.7251 20.6614 15.5877C21.1325 14.4502 21.375 13.2311 21.375 12C21.375 11.102 21.249 10.234 21.014 9.41301C20.9673 9.2245 20.9955 9.02522 21.0928 8.8571C21.19 8.68899 21.3487 8.56515 21.5353 8.51164C21.722 8.45813 21.9222 8.47913 22.0937 8.57021C22.2653 8.6613 22.3948 8.81537 22.455 9.00001C22.729 9.95401 22.875 10.96 22.875 12C22.875 18.006 18.006 22.875 12 22.875C5.994 22.875 1.125 18.006 1.125 12C1.125 5.99401 5.994 1.12501 12 1.12501C13.015 1.12401 14.024 1.26501 15 1.54401C15.0952 1.5707 15.1841 1.61594 15.2617 1.67713C15.3393 1.73831 15.4041 1.81423 15.4523 1.90053C15.5005 1.98683 15.5311 2.0818 15.5425 2.17998C15.5538 2.27816 15.5457 2.37762 15.5184 2.47264C15.4912 2.56765 15.4455 2.65635 15.3839 2.73364C15.3223 2.81092 15.246 2.87527 15.1595 2.92297C15.0729 2.97068 14.9778 3.00081 14.8795 3.01163C14.7813 3.02244 14.6819 3.01374 14.587 2.98601C13.7457 2.74586 12.8749 2.62436 12 2.62501C9.5136 2.62501 7.12903 3.61273 5.37087 5.37088C3.61272 7.12903 2.625 9.5136 2.625 12Z" />
<path d="M7.12474 12C7.12753 12.6623 7.26529 13.3171 7.52959 13.9244C7.79389 14.5317 8.1792 15.0788 8.66199 15.5322C9.14478 15.9856 9.71492 16.3359 10.3376 16.5616C10.9603 16.7874 11.6224 16.8838 12.2836 16.8451C12.9448 16.8064 13.5912 16.6333 14.1833 16.3364C14.7753 16.0396 15.3007 15.6252 15.7273 15.1185C16.1538 14.6118 16.4727 14.0235 16.6643 13.3895C16.8559 12.7555 16.9163 12.0891 16.8417 11.431C16.8207 11.2977 16.8362 11.1612 16.8864 11.036C16.9367 10.9108 17.0199 10.8015 17.1272 10.7197C17.2345 10.6379 17.362 10.5866 17.496 10.5714C17.6301 10.5561 17.7658 10.5774 17.8887 10.633C18.1397 10.745 18.3087 10.984 18.3307 11.258C18.486 12.5732 18.2277 13.9042 17.5916 15.0658C16.9556 16.2275 15.9734 17.1621 14.7817 17.7398C13.59 18.3175 12.2479 18.5096 10.9419 18.2894C9.63599 18.0692 8.4311 17.4476 7.49474 16.511C6.55864 15.5754 5.93687 14.3717 5.71567 13.0668C5.49447 11.762 5.6848 10.4206 6.26027 9.22881C6.83573 8.037 7.76781 7.05379 8.92723 6.41556C10.0866 5.77733 11.4159 5.5157 12.7307 5.66697C12.8301 5.6762 12.9267 5.70517 13.0147 5.75219C13.1028 5.79921 13.1806 5.86334 13.2435 5.94081C13.3065 6.01828 13.3533 6.10754 13.3813 6.20335C13.4093 6.29917 13.4179 6.39961 13.4066 6.49879C13.3953 6.59796 13.3643 6.69389 13.3154 6.78093C13.2666 6.86797 13.2008 6.94438 13.122 7.00568C13.0432 7.06699 12.953 7.11194 12.8566 7.13792C12.7603 7.1639 12.6597 7.17038 12.5607 7.15697C11.8778 7.07801 11.1858 7.14438 10.5303 7.35171C9.87479 7.55904 9.27053 7.90266 8.75719 8.36C8.24385 8.81735 7.83302 9.37808 7.55168 10.0054C7.27034 10.6327 7.12485 11.3125 7.12474 12Z" />
</svg>
