<svg width="29" height="30" viewBox="0 0 29 30" fill="#CCCCCC" xmlns="http://www.w3.org/2000/svg">
<path d="M17.0291 2.48998C16.2857 -0.0300245 12.7145 -0.0300245 11.9711 2.48998L11.7911 3.10198C11.68 3.47925 11.4859 3.82687 11.223 4.11936C10.9601 4.41184 10.635 4.64178 10.2717 4.79229C9.90837 4.9428 9.51595 5.01009 9.12322 4.9892C8.73049 4.96831 8.34742 4.85978 8.0021 4.67158L7.4441 4.36558C5.1347 3.10918 2.6093 5.63458 3.8675 7.94218L4.1717 8.50198C4.9745 9.97797 4.2131 11.8158 2.6021 12.291L1.9901 12.471C-0.529902 13.2144 -0.529902 16.7856 1.9901 17.529L2.6021 17.709C2.97937 17.82 3.32699 18.0142 3.61948 18.2771C3.91197 18.54 4.1419 18.865 4.29241 19.2284C4.44293 19.5917 4.51021 19.9841 4.48932 20.3769C4.46843 20.7696 4.3599 21.1527 4.1717 21.498L3.8657 22.056C2.6093 24.3654 5.1347 26.8908 7.4423 25.6326L8.0021 25.3284C8.34742 25.1402 8.73049 25.0316 9.12322 25.0108C9.51595 24.9899 9.90837 25.0571 10.2717 25.2077C10.635 25.3582 10.9601 25.5881 11.223 25.8806C11.4859 26.1731 11.68 26.5207 11.7911 26.898L11.9711 27.51C12.7145 30.03 16.2857 30.03 17.0291 27.51L17.2091 26.898C17.3202 26.5207 17.5143 26.1731 17.7772 25.8806C18.0401 25.5881 18.3651 25.3582 18.7285 25.2077C19.0918 25.0571 19.4842 24.9899 19.877 25.0108C20.2697 25.0316 20.6528 25.1402 20.9981 25.3284L21.5561 25.6344C23.8655 26.8908 26.3909 24.3654 25.1327 22.0578L24.8285 21.498C24.6403 21.1527 24.5318 20.7696 24.5109 20.3769C24.49 19.9841 24.5573 19.5917 24.7078 19.2284C24.8583 18.865 25.0882 18.54 25.3807 18.2771C25.6732 18.0142 26.0208 17.82 26.3981 17.709L27.0101 17.529C29.5301 16.7856 29.5301 13.2144 27.0101 12.471L26.3981 12.291C26.0208 12.1799 25.6732 11.9858 25.3807 11.7229C25.0882 11.46 24.8583 11.1349 24.7078 10.7716C24.5573 10.4082 24.49 10.0158 24.5109 9.6231C24.5318 9.23037 24.6403 8.8473 24.8285 8.50198L25.1345 7.94398C26.3909 5.63458 23.8655 3.10918 21.5579 4.36738L20.9981 4.67158C20.6528 4.85978 20.2697 4.96831 19.877 4.9892C19.4842 5.01009 19.0918 4.9428 18.7285 4.79229C18.3651 4.64178 18.0401 4.41184 17.7772 4.11936C17.5143 3.82687 17.3202 3.47925 17.2091 3.10198L17.0291 2.48998ZM14.5001 20.274C13.1013 20.274 11.7599 19.7183 10.7708 18.7293C9.78175 17.7402 9.2261 16.3987 9.2261 15C9.2261 13.6012 9.78175 12.2598 10.7708 11.2707C11.7599 10.2816 13.1013 9.72598 14.5001 9.72598C15.8984 9.72598 17.2394 10.2814 18.2281 11.2702C19.2168 12.2589 19.7723 13.5999 19.7723 14.9982C19.7723 16.3965 19.2168 17.7375 18.2281 18.7262C17.2394 19.7149 15.8984 20.2704 14.5001 20.2704V20.274Z" />
</svg>
