<svg width="29" height="25" viewBox="0 0 29 25" fill="#CCCCCC" xmlns="http://www.w3.org/2000/svg">
<path d="M14.5001 0C13.9603 -8.04298e-09 13.4259 0.106313 12.9272 0.312868C12.4285 0.519423 11.9754 0.822176 11.5938 1.20384C11.2121 1.58551 10.9093 2.03861 10.7028 2.53728C10.4962 3.03595 10.3899 3.57042 10.3899 4.11017C10.3899 4.64993 10.4962 5.1844 10.7028 5.68307C10.9093 6.18173 11.2121 6.63484 11.5938 7.0165C11.9754 7.39817 12.4285 7.70092 12.9272 7.90747C13.4259 8.11403 13.9603 8.22034 14.5001 8.22034C15.5902 8.22034 16.6356 7.78731 17.4064 7.0165C18.1772 6.24569 18.6103 5.20026 18.6103 4.11017C18.6103 3.02009 18.1772 1.97465 17.4064 1.20384C16.6356 0.433034 15.5902 0 14.5001 0ZM23.7572 2.05303C22.9389 2.05303 22.154 2.37813 21.5753 2.95681C20.9966 3.5355 20.6715 4.32036 20.6715 5.13874C20.6715 5.95712 20.9966 6.74199 21.5753 7.32067C22.154 7.89936 22.9389 8.22446 23.7572 8.22446C24.5756 8.22446 25.3605 7.89936 25.9392 7.32067C26.5179 6.74199 26.843 5.95712 26.843 5.13874C26.843 4.32036 26.5179 3.5355 25.9392 2.95681C25.3605 2.37813 24.5756 2.05303 23.7572 2.05303ZM5.24296 2.05303C4.42457 2.05303 3.63971 2.37813 3.06103 2.95681C2.48234 3.5355 2.15724 4.32036 2.15724 5.13874C2.15724 5.95712 2.48234 6.74199 3.06103 7.32067C3.63971 7.89936 4.42457 8.22446 5.24296 8.22446C6.06134 8.22446 6.8462 7.89936 7.42488 7.32067C8.00357 6.74199 8.32867 5.95712 8.32867 5.13874C8.32867 4.32036 8.00357 3.5355 7.42488 2.95681C6.8462 2.37813 6.06134 2.05303 5.24296 2.05303ZM8.32867 12.3243C8.33247 11.7813 8.55088 11.2617 8.93626 10.879C9.32164 10.4963 9.84271 10.2816 10.3858 10.2816H18.6144C19.16 10.2816 19.6832 10.4983 20.069 10.8841C20.4548 11.2699 20.6715 11.7932 20.6715 12.3387V18.5102C20.6721 19.1576 20.5707 19.8012 20.3712 20.4171C19.9157 21.8133 18.9773 23.0014 17.7247 23.768C16.472 24.5346 14.9871 24.8296 13.5366 24.5999C12.086 24.3702 10.7649 23.6309 9.81039 22.5148C8.85588 21.3986 8.33053 19.9788 8.32867 18.5102V12.3243ZM6.27153 12.3387C6.27153 11.5879 6.47107 10.8864 6.82284 10.2816H2.15724C1.61165 10.2816 1.08841 10.4983 0.702621 10.8841C0.316832 11.2699 0.100098 11.7932 0.100098 12.3387V17.4816C0.0998178 18.3236 0.306277 19.1528 0.701345 19.8963C1.09641 20.6399 1.668 21.2751 2.36592 21.7461C3.06384 22.2172 3.86674 22.5096 4.7041 22.5979C5.54146 22.6861 6.38768 22.5674 7.16844 22.2521C6.57761 21.0926 6.27023 19.8095 6.27153 18.5081V12.3387ZM22.7287 12.3387V18.5102C22.7287 19.8576 22.4057 21.1289 21.8318 22.2521C22.6125 22.5674 23.4587 22.6861 24.2961 22.5979C25.1335 22.5096 25.9364 22.2172 26.6343 21.7461C27.3322 21.2751 27.9038 20.6399 28.2988 19.8963C28.6939 19.1528 28.9004 18.3236 28.9001 17.4816V12.3387C28.9001 11.7932 28.6834 11.2699 28.2976 10.8841C27.9118 10.4983 27.3885 10.2816 26.843 10.2816H22.1774C22.5271 10.8864 22.7287 11.5879 22.7287 12.3387Z" />
</svg>
